<svg xmlns="http://www.w3.org/2000/svg" xmlns:xlink="http://www.w3.org/1999/xlink" width="211.667mm" height="158.75mm" version="1.1">
<title>TEMP_14hiq8t0hmvnwr0zyoxaz0q42l9z</title>
<desc>Rendered by Tableau</desc>
<defs>
<clipPath id="clipPath1">
<path vector-effect="none" fill-rule="evenodd" d="M89,547 L788,547 L788,589 L89,589 L89,547"/>
</clipPath>
<clipPath id="clipPath2">
<path vector-effect="none" fill-rule="evenodd" d="M11,54 L91,54 L91,549 L11,549 L11,54"/>
</clipPath>
<clipPath id="clipPath3">
<path vector-effect="none" fill-rule="evenodd" d="M90,55 L788,55 L788,549 L90,549 L90,55"/>
</clipPath>
<clipPath id="clipPath4">
<path vector-effect="none" fill-rule="evenodd" d="M90,55 L788,55 L788,549 L90,549 L90,55"/>
</clipPath>
<clipPath id="clipPath5">
<path vector-effect="none" fill-rule="evenodd" d="M90,55 L788,55 L788,549 L90,549 L90,55"/>
</clipPath>
<clipPath id="clipPath6">
<path vector-effect="none" fill-rule="evenodd" d="M90,55 L788,55 L788,549 L90,549 L90,55"/>
</clipPath>
<clipPath id="clipPath7">
<path vector-effect="none" fill-rule="evenodd" d="M90,55 L788,55 L788,549 L90,549 L90,55"/>
</clipPath>
<clipPath id="clipPath8">
<path vector-effect="none" fill-rule="evenodd" d="M90,55 L788,55 L788,549 L90,549 L90,55"/>
</clipPath>
<clipPath id="clipPath9">
<path vector-effect="none" fill-rule="evenodd" d="M90,55 L788,55 L788,549 L90,549 L90,55"/>
</clipPath>
<clipPath id="clipPath10">
<path vector-effect="none" fill-rule="evenodd" d="M90,55 L788,55 L788,549 L90,549 L90,55"/>
</clipPath>
<clipPath id="clipPath11">
<path vector-effect="none" fill-rule="evenodd" d="M90,55 L787,55 L787,548 L90,548 L90,55"/>
</clipPath>
<clipPath id="clipPath12">
<path vector-effect="none" fill-rule="evenodd" d="M90,55 L788,55 L788,549 L90,549 L90,55"/>
</clipPath>
<clipPath id="clipPath13">
<path vector-effect="none" fill-rule="evenodd" d="M90,55 L787,55 L787,548 L90,548 L90,55"/>
</clipPath>
<clipPath id="clipPath14">
<path vector-effect="none" fill-rule="evenodd" d="M90,55 L788,55 L788,549 L90,549 L90,55"/>
</clipPath>
<clipPath id="clipPath15">
<path vector-effect="none" fill-rule="evenodd" d="M90,55 L787,55 L787,548 L90,548 L90,55"/>
</clipPath>
<clipPath id="clipPath16">
<path vector-effect="none" fill-rule="evenodd" d="M90,55 L788,55 L788,549 L90,549 L90,55"/>
</clipPath>
<clipPath id="clipPath17">
<path vector-effect="none" fill-rule="evenodd" d="M90,55 L787,55 L787,548 L90,548 L90,55"/>
</clipPath>
<clipPath id="clipPath18">
<path vector-effect="none" fill-rule="evenodd" d="M90,55 L788,55 L788,549 L90,549 L90,55"/>
</clipPath>
<clipPath id="clipPath19">
<path vector-effect="none" fill-rule="evenodd" d="M90,55 L788,55 L788,549 L90,549 L90,55"/>
</clipPath>
<clipPath id="clipPath20">
<path vector-effect="none" fill-rule="evenodd" d="M90,55 L787,55 L787,548 L90,548 L90,55"/>
</clipPath>
<clipPath id="clipPath21">
<path vector-effect="none" fill-rule="evenodd" d="M90,55 L788,55 L788,549 L90,549 L90,55"/>
</clipPath>
<clipPath id="clipPath22">
<path vector-effect="none" fill-rule="evenodd" d="M90,55 L787,55 L787,548 L90,548 L90,55"/>
</clipPath>
<clipPath id="clipPath23">
<path vector-effect="none" fill-rule="evenodd" d="M90,55 L788,55 L788,549 L90,549 L90,55"/>
</clipPath>
<clipPath id="clipPath24">
<path vector-effect="none" fill-rule="evenodd" d="M90,55 L787,55 L787,548 L90,548 L90,55"/>
</clipPath>
<clipPath id="clipPath25">
<path vector-effect="none" fill-rule="evenodd" d="M90,55 L788,55 L788,549 L90,549 L90,55"/>
</clipPath>
<clipPath id="clipPath26">
<path vector-effect="none" fill-rule="evenodd" d="M90,55 L787,55 L787,548 L90,548 L90,55"/>
</clipPath>
<clipPath id="clipPath27">
<path vector-effect="none" fill-rule="evenodd" d="M90,55 L788,55 L788,549 L90,549 L90,55"/>
</clipPath>
<clipPath id="clipPath28">
<path vector-effect="none" fill-rule="evenodd" d="M90,55 L788,55 L788,549 L90,549 L90,55"/>
</clipPath>
<clipPath id="clipPath29">
<path vector-effect="none" fill-rule="evenodd" d="M90,55 L787,55 L787,548 L90,548 L90,55"/>
</clipPath>
<clipPath id="clipPath30">
<path vector-effect="none" fill-rule="evenodd" d="M90,55 L788,55 L788,549 L90,549 L90,55"/>
</clipPath>
<clipPath id="clipPath31">
<path vector-effect="none" fill-rule="evenodd" d="M90,55 L787,55 L787,548 L90,548 L90,55"/>
</clipPath>
<clipPath id="clipPath32">
<path vector-effect="none" fill-rule="evenodd" d="M90,55 L788,55 L788,549 L90,549 L90,55"/>
</clipPath>
<clipPath id="clipPath33">
<path vector-effect="none" fill-rule="evenodd" d="M90,55 L787,55 L787,548 L90,548 L90,55"/>
</clipPath>
<clipPath id="clipPath34">
<path vector-effect="none" fill-rule="evenodd" d="M90,55 L788,55 L788,549 L90,549 L90,55"/>
</clipPath>
<clipPath id="clipPath35">
<path vector-effect="none" fill-rule="evenodd" d="M90,55 L787,55 L787,548 L90,548 L90,55"/>
</clipPath>
<clipPath id="clipPath36">
<path vector-effect="none" fill-rule="evenodd" d="M90,55 L788,55 L788,549 L90,549 L90,55"/>
</clipPath>
<clipPath id="clipPath37">
<path vector-effect="none" fill-rule="evenodd" d="M90,55 L788,55 L788,549 L90,549 L90,55"/>
</clipPath>
<clipPath id="clipPath38">
<path vector-effect="none" fill-rule="evenodd" d="M90,55 L787,55 L787,548 L90,548 L90,55"/>
</clipPath>
<clipPath id="clipPath39">
<path vector-effect="none" fill-rule="evenodd" d="M90,55 L788,55 L788,549 L90,549 L90,55"/>
</clipPath>
<clipPath id="clipPath40">
<path vector-effect="none" fill-rule="evenodd" d="M90,55 L787,55 L787,548 L90,548 L90,55"/>
</clipPath>
<clipPath id="clipPath41">
<path vector-effect="none" fill-rule="evenodd" d="M90,55 L788,55 L788,549 L90,549 L90,55"/>
</clipPath>
<clipPath id="clipPath42">
<path vector-effect="none" fill-rule="evenodd" d="M90,55 L787,55 L787,548 L90,548 L90,55"/>
</clipPath>
<clipPath id="clipPath43">
<path vector-effect="none" fill-rule="evenodd" d="M90,55 L788,55 L788,549 L90,549 L90,55"/>
</clipPath>
<clipPath id="clipPath44">
<path vector-effect="none" fill-rule="evenodd" d="M90,55 L787,55 L787,548 L90,548 L90,55"/>
</clipPath>
<clipPath id="clipPath45">
<path vector-effect="none" fill-rule="evenodd" d="M90,55 L788,55 L788,549 L90,549 L90,55"/>
</clipPath>
<clipPath id="clipPath46">
<path vector-effect="none" fill-rule="evenodd" d="M90,55 L788,55 L788,549 L90,549 L90,55"/>
</clipPath>
<clipPath id="clipPath47">
<path vector-effect="none" fill-rule="evenodd" d="M90,55 L787,55 L787,548 L90,548 L90,55"/>
</clipPath>
<clipPath id="clipPath48">
<path vector-effect="none" fill-rule="evenodd" d="M90,55 L788,55 L788,549 L90,549 L90,55"/>
</clipPath>
<clipPath id="clipPath49">
<path vector-effect="none" fill-rule="evenodd" d="M90,55 L787,55 L787,548 L90,548 L90,55"/>
</clipPath>
<clipPath id="clipPath50">
<path vector-effect="none" fill-rule="evenodd" d="M90,55 L788,55 L788,549 L90,549 L90,55"/>
</clipPath>
<clipPath id="clipPath51">
<path vector-effect="none" fill-rule="evenodd" d="M90,55 L787,55 L787,548 L90,548 L90,55"/>
</clipPath>
<clipPath id="clipPath52">
<path vector-effect="none" fill-rule="evenodd" d="M90,55 L788,55 L788,549 L90,549 L90,55"/>
</clipPath>
<clipPath id="clipPath53">
<path vector-effect="none" fill-rule="evenodd" d="M90,55 L787,55 L787,548 L90,548 L90,55"/>
</clipPath>
<clipPath id="clipPath54">
<path vector-effect="none" fill-rule="evenodd" d="M90,55 L788,55 L788,549 L90,549 L90,55"/>
</clipPath>
<clipPath id="clipPath55">
<path vector-effect="none" fill-rule="evenodd" d="M90,55 L788,55 L788,549 L90,549 L90,55"/>
</clipPath>
<clipPath id="clipPath56">
<path vector-effect="none" fill-rule="evenodd" d="M90,55 L787,55 L787,548 L90,548 L90,55"/>
</clipPath>
<clipPath id="clipPath57">
<path vector-effect="none" fill-rule="evenodd" d="M90,55 L788,55 L788,549 L90,549 L90,55"/>
</clipPath>
<clipPath id="clipPath58">
<path vector-effect="none" fill-rule="evenodd" d="M90,55 L787,55 L787,548 L90,548 L90,55"/>
</clipPath>
<clipPath id="clipPath59">
<path vector-effect="none" fill-rule="evenodd" d="M90,55 L788,55 L788,549 L90,549 L90,55"/>
</clipPath>
<clipPath id="clipPath60">
<path vector-effect="none" fill-rule="evenodd" d="M90,55 L787,55 L787,548 L90,548 L90,55"/>
</clipPath>
<clipPath id="clipPath61">
<path vector-effect="none" fill-rule="evenodd" d="M90,55 L788,55 L788,549 L90,549 L90,55"/>
</clipPath>
<clipPath id="clipPath62">
<path vector-effect="none" fill-rule="evenodd" d="M90,55 L787,55 L787,548 L90,548 L90,55"/>
</clipPath>
<clipPath id="clipPath63">
<path vector-effect="none" fill-rule="evenodd" d="M90,55 L788,55 L788,549 L90,549 L90,55"/>
</clipPath>
<clipPath id="clipPath64">
<path vector-effect="none" fill-rule="evenodd" d="M90,55 L788,55 L788,549 L90,549 L90,55"/>
</clipPath>
<clipPath id="clipPath65">
<path vector-effect="none" fill-rule="evenodd" d="M90,55 L788,55 L788,549 L90,549 L90,55"/>
</clipPath>
<clipPath id="clipPath66">
<path vector-effect="none" fill-rule="evenodd" d="M90,55 L788,55 L788,549 L90,549 L90,55"/>
</clipPath>
</defs>
<g fill="none" stroke="black" stroke-width="1" fill-rule="evenodd" stroke-linecap="square" stroke-linejoin="bevel">

<g fill="#ffffff" fill-opacity="1" stroke="none" transform="matrix(1,0,0,1,0,0)" font-family="Sans Serif" font-size="12" font-weight="400" font-style="normal">
<rect x="0" y="0" width="800" height="600"/>
</g>

<g fill="#000000" fill-opacity="0" stroke="none" transform="matrix(1,0,0,1,12,12)" font-family="Sans Serif" font-size="12" font-weight="400" font-style="normal">
<rect x="0" y="0" width="776" height="576"/>
</g>

<g fill="#ffffff" fill-opacity="1" stroke="none" transform="matrix(1,0,0,1,12,12)" font-family="Sans Serif" font-size="12" font-weight="400" font-style="normal">
<rect x="0" y="43" width="775" height="533"/>
</g>

<g clip-path="url(#clipPath1)"><g fill="none" stroke="#000000" stroke-opacity="1" stroke-width="1" stroke-linecap="square" stroke-linejoin="bevel" transform="matrix(1,0,0,1,90,548)" font-family="Sans Serif" font-size="12" font-weight="400" font-style="normal">
</g>
</g>

<g clip-path="url(#clipPath1)"><g fill="none" stroke="#f5f5f5" stroke-opacity="1" stroke-width="1" stroke-linecap="butt" stroke-linejoin="bevel" transform="matrix(1,0,0,1,90,548)" font-family="Sans Serif" font-size="12" font-weight="400" font-style="normal">
<polyline fill="none" vector-effect="none" points="0,0 0,5 "/>
<polyline fill="none" vector-effect="none" points="139,0 139,5 "/>
<polyline fill="none" vector-effect="none" points="278,0 278,5 "/>
<polyline fill="none" vector-effect="none" points="418,0 418,5 "/>
<polyline fill="none" vector-effect="none" points="557,0 557,5 "/>
<polyline fill="none" vector-effect="none" points="697,0 697,5 "/>
</g>
</g>

<g clip-path="url(#clipPath1)"><g fill="none" stroke="#f5f5f5" stroke-opacity="1" stroke-width="1" stroke-linecap="butt" stroke-linejoin="bevel" transform="matrix(1,0,0,1,90,548)" font-family="Sans Serif" font-size="12" font-weight="400" font-style="normal">
</g>
</g>

<g clip-path="url(#clipPath1)"><g fill="none" stroke="#666666" stroke-opacity="1" stroke-width="1" stroke-linecap="square" stroke-linejoin="bevel" transform="matrix(1,0,0,1,90,548)" font-family="Arial" font-size="12" font-weight="400" font-style="normal">
<text fill="#666666" fill-opacity="1" stroke="none" xml:space="preserve" x="7.70313" y="15" font-family="Arial" font-size="12" font-weight="400" font-style="normal">Curtis Institute of Music</text>
</g>
</g>

<g clip-path="url(#clipPath1)"><g fill="none" stroke="#666666" stroke-opacity="1" stroke-width="1" stroke-linecap="square" stroke-linejoin="bevel" transform="matrix(1,0,0,1,90,548)" font-family="Arial" font-size="12" font-weight="400" font-style="normal">
<text fill="#666666" fill-opacity="1" stroke="none" xml:space="preserve" x="173.828" y="15" font-family="Arial" font-size="12" font-weight="400" font-style="normal">New England</text>
</g>
</g>

<g clip-path="url(#clipPath1)"><g fill="none" stroke="#666666" stroke-opacity="1" stroke-width="1" stroke-linecap="square" stroke-linejoin="bevel" transform="matrix(1,0,0,1,90,548)" font-family="Arial" font-size="12" font-weight="400" font-style="normal">
<text fill="#666666" fill-opacity="1" stroke="none" xml:space="preserve" x="173.844" y="29" font-family="Arial" font-size="12" font-weight="400" font-style="normal">Conservatory</text>
</g>
</g>

<g clip-path="url(#clipPath1)"><g fill="none" stroke="#666666" stroke-opacity="1" stroke-width="1" stroke-linecap="square" stroke-linejoin="bevel" transform="matrix(1,0,0,1,90,548)" font-family="Arial" font-size="12" font-weight="400" font-style="normal">
<text fill="#666666" fill-opacity="1" stroke="none" xml:space="preserve" x="296.188" y="15" font-family="Arial" font-size="12" font-weight="400" font-style="normal">The Juilliard School</text>
</g>
</g>

<g clip-path="url(#clipPath1)"><g fill="none" stroke="#666666" stroke-opacity="1" stroke-width="1" stroke-linecap="square" stroke-linejoin="bevel" transform="matrix(1,0,0,1,90,548)" font-family="Arial" font-size="12" font-weight="400" font-style="normal">
<text fill="#666666" fill-opacity="1" stroke="none" xml:space="preserve" x="432.5" y="15" font-family="Arial" font-size="12" font-weight="400" font-style="normal">Manhattan School of</text>
</g>
</g>

<g clip-path="url(#clipPath1)"><g fill="none" stroke="#666666" stroke-opacity="1" stroke-width="1" stroke-linecap="square" stroke-linejoin="bevel" transform="matrix(1,0,0,1,90,548)" font-family="Arial" font-size="12" font-weight="400" font-style="normal">
<text fill="#666666" fill-opacity="1" stroke="none" xml:space="preserve" x="472.344" y="29" font-family="Arial" font-size="12" font-weight="400" font-style="normal">Music</text>
</g>
</g>

<g clip-path="url(#clipPath1)"><g fill="none" stroke="#666666" stroke-opacity="1" stroke-width="1" stroke-linecap="square" stroke-linejoin="bevel" transform="matrix(1,0,0,1,90,548)" font-family="Arial" font-size="12" font-weight="400" font-style="normal">
<text fill="#666666" fill-opacity="1" stroke="none" xml:space="preserve" x="560.688" y="15" font-family="Arial" font-size="12" font-weight="400" font-style="normal">Berklee College of Music</text>
</g>
</g>

<g fill="none" stroke="#666666" stroke-opacity="1" stroke-width="1" stroke-linecap="square" stroke-linejoin="bevel" transform="matrix(1,0,0,1,90,548)" font-family="Arial" font-size="12" font-weight="400" font-style="normal">
</g>

<g clip-path="url(#clipPath2)"><g fill="none" stroke="#666666" stroke-opacity="1" stroke-width="1" stroke-linecap="square" stroke-linejoin="bevel" transform="matrix(1,0,0,1,12,55)" font-family="Arial" font-size="12" font-weight="400" font-style="normal">
</g>
</g>

<g clip-path="url(#clipPath2)"><g fill="none" stroke="#f5f5f5" stroke-opacity="1" stroke-width="1" stroke-linecap="butt" stroke-linejoin="bevel" transform="matrix(1,0,0,1,12,55)" font-family="Arial" font-size="12" font-weight="400" font-style="normal">
<polyline fill="none" vector-effect="none" points="73,493 78,493 "/>
<polyline fill="none" vector-effect="none" points="73,432 78,432 "/>
<polyline fill="none" vector-effect="none" points="73,371 78,371 "/>
<polyline fill="none" vector-effect="none" points="73,309 78,309 "/>
<polyline fill="none" vector-effect="none" points="73,248 78,248 "/>
<polyline fill="none" vector-effect="none" points="73,187 78,187 "/>
<polyline fill="none" vector-effect="none" points="73,126 78,126 "/>
<polyline fill="none" vector-effect="none" points="73,65 78,65 "/>
<polyline fill="none" vector-effect="none" points="73,4 78,4 "/>
</g>
</g>

<g clip-path="url(#clipPath2)"><g fill="none" stroke="#666666" stroke-opacity="1" stroke-width="1" stroke-linecap="square" stroke-linejoin="bevel" transform="matrix(1,0,0,1,12,55)" font-family="Arial" font-size="12" font-weight="400" font-style="normal">
<text fill="#666666" fill-opacity="1" stroke="none" xml:space="preserve" x="64.3281" y="490" font-family="Arial" font-size="12" font-weight="400" font-style="normal">0</text>
</g>
</g>

<g clip-path="url(#clipPath2)"><g fill="none" stroke="#666666" stroke-opacity="1" stroke-width="1" stroke-linecap="square" stroke-linejoin="bevel" transform="matrix(1,0,0,1,12,55)" font-family="Arial" font-size="12" font-weight="400" font-style="normal">
<text fill="#666666" fill-opacity="1" stroke="none" xml:space="preserve" x="40.9844" y="436" font-family="Arial" font-size="12" font-weight="400" font-style="normal">1,000</text>
</g>
</g>

<g clip-path="url(#clipPath2)"><g fill="none" stroke="#666666" stroke-opacity="1" stroke-width="1" stroke-linecap="square" stroke-linejoin="bevel" transform="matrix(1,0,0,1,12,55)" font-family="Arial" font-size="12" font-weight="400" font-style="normal">
<text fill="#666666" fill-opacity="1" stroke="none" xml:space="preserve" x="40.9844" y="375" font-family="Arial" font-size="12" font-weight="400" font-style="normal">2,000</text>
</g>
</g>

<g clip-path="url(#clipPath2)"><g fill="none" stroke="#666666" stroke-opacity="1" stroke-width="1" stroke-linecap="square" stroke-linejoin="bevel" transform="matrix(1,0,0,1,12,55)" font-family="Arial" font-size="12" font-weight="400" font-style="normal">
<text fill="#666666" fill-opacity="1" stroke="none" xml:space="preserve" x="40.9844" y="313" font-family="Arial" font-size="12" font-weight="400" font-style="normal">3,000</text>
</g>
</g>

<g clip-path="url(#clipPath2)"><g fill="none" stroke="#666666" stroke-opacity="1" stroke-width="1" stroke-linecap="square" stroke-linejoin="bevel" transform="matrix(1,0,0,1,12,55)" font-family="Arial" font-size="12" font-weight="400" font-style="normal">
<text fill="#666666" fill-opacity="1" stroke="none" xml:space="preserve" x="40.9844" y="252" font-family="Arial" font-size="12" font-weight="400" font-style="normal">4,000</text>
</g>
</g>

<g clip-path="url(#clipPath2)"><g fill="none" stroke="#666666" stroke-opacity="1" stroke-width="1" stroke-linecap="square" stroke-linejoin="bevel" transform="matrix(1,0,0,1,12,55)" font-family="Arial" font-size="12" font-weight="400" font-style="normal">
<text fill="#666666" fill-opacity="1" stroke="none" xml:space="preserve" x="40.9844" y="191" font-family="Arial" font-size="12" font-weight="400" font-style="normal">5,000</text>
</g>
</g>

<g clip-path="url(#clipPath2)"><g fill="none" stroke="#666666" stroke-opacity="1" stroke-width="1" stroke-linecap="square" stroke-linejoin="bevel" transform="matrix(1,0,0,1,12,55)" font-family="Arial" font-size="12" font-weight="400" font-style="normal">
<text fill="#666666" fill-opacity="1" stroke="none" xml:space="preserve" x="40.9844" y="130" font-family="Arial" font-size="12" font-weight="400" font-style="normal">6,000</text>
</g>
</g>

<g clip-path="url(#clipPath2)"><g fill="none" stroke="#666666" stroke-opacity="1" stroke-width="1" stroke-linecap="square" stroke-linejoin="bevel" transform="matrix(1,0,0,1,12,55)" font-family="Arial" font-size="12" font-weight="400" font-style="normal">
<text fill="#666666" fill-opacity="1" stroke="none" xml:space="preserve" x="40.9844" y="69" font-family="Arial" font-size="12" font-weight="400" font-style="normal">7,000</text>
</g>
</g>

<g clip-path="url(#clipPath2)"><g fill="none" stroke="#666666" stroke-opacity="1" stroke-width="1" stroke-linecap="square" stroke-linejoin="bevel" transform="matrix(1,0,0,1,12,55)" font-family="Arial" font-size="12" font-weight="400" font-style="normal">
<text fill="#666666" fill-opacity="1" stroke="none" xml:space="preserve" x="40.9844" y="11" font-family="Arial" font-size="12" font-weight="400" font-style="normal">8,000</text>
</g>
</g>

<g clip-path="url(#clipPath2)"><g fill="none" stroke="#666666" stroke-opacity="1" stroke-width="1" stroke-linecap="square" stroke-linejoin="bevel" transform="matrix(1,0,0,1,12,55)" font-family="Arial" font-size="12" font-weight="400" font-style="normal">
</g>
</g>

<g clip-path="url(#clipPath2)"><g fill="none" stroke="#333333" stroke-opacity="1" stroke-width="1" stroke-linecap="square" stroke-linejoin="bevel" transform="matrix(0,-1,1,0,30,344.641)" font-family="Arial" font-size="12" font-weight="400" font-style="normal">
<text fill="#333333" fill-opacity="1" stroke="none" xml:space="preserve" x="0" y="0" font-family="Arial" font-size="12" font-weight="400" font-style="normal">Total Enrollment</text>
</g>
</g>

<g clip-path="url(#clipPath2)"><g fill="none" stroke="#666666" stroke-opacity="1" stroke-width="1" stroke-linecap="square" stroke-linejoin="bevel" transform="matrix(1,0,0,1,12,55)" font-family="Arial" font-size="12" font-weight="400" font-style="normal">
</g>
</g>

<g fill="none" stroke="#666666" stroke-opacity="1" stroke-width="1" stroke-linecap="square" stroke-linejoin="bevel" transform="matrix(1,0,0,1,12,55)" font-family="Arial" font-size="12" font-weight="400" font-style="normal">
</g>

<g clip-path="url(#clipPath2)"><g fill="none" stroke="#666666" stroke-opacity="1" stroke-width="1" stroke-linecap="square" stroke-linejoin="bevel" transform="matrix(1,0,0,1,90,55)" font-family="Arial" font-size="12" font-weight="400" font-style="normal">
</g>
</g>

<g clip-path="url(#clipPath3)"><g fill="none" stroke="#666666" stroke-opacity="1" stroke-width="1" stroke-linecap="square" stroke-linejoin="bevel" transform="matrix(1,0,0,1,90,55)" font-family="Arial" font-size="12" font-weight="400" font-style="normal">
</g>
</g>

<g clip-path="url(#clipPath4)"><g fill="none" stroke="#666666" stroke-opacity="1" stroke-width="1" stroke-linecap="square" stroke-linejoin="bevel" transform="matrix(1,0,0,1,90,55)" font-family="Arial" font-size="12" font-weight="400" font-style="normal">
</g>
</g>

<g clip-path="url(#clipPath4)"><g fill="#ffffff" fill-opacity="1" stroke="none" transform="matrix(1,0,0,1,90,55)" font-family="Arial" font-size="12" font-weight="400" font-style="normal">
<rect x="0" y="0" width="698" height="494"/>
</g>
</g>

<g clip-path="url(#clipPath4)"><g fill="#ffffff" fill-opacity="1" stroke="none" transform="matrix(1,0,0,1,90,55)" font-family="Arial" font-size="12" font-weight="400" font-style="normal">
<rect x="0" y="0" width="698" height="494"/>
</g>
</g>

<g clip-path="url(#clipPath5)"><g fill="none" stroke="#666666" stroke-opacity="1" stroke-width="1" stroke-linecap="square" stroke-linejoin="bevel" transform="matrix(1,0,0,1,90,55)" font-family="Arial" font-size="12" font-weight="400" font-style="normal">
</g>
</g>

<g clip-path="url(#clipPath5)"><g fill="#ffffff" fill-opacity="1" stroke="none" transform="matrix(1,0,0,1,90,55)" font-family="Arial" font-size="12" font-weight="400" font-style="normal">
<rect x="0" y="0" width="698" height="494"/>
</g>
</g>

<g clip-path="url(#clipPath6)"><g fill="none" stroke="#666666" stroke-opacity="1" stroke-width="1" stroke-linecap="square" stroke-linejoin="bevel" transform="matrix(1,0,0,1,90,55)" font-family="Arial" font-size="12" font-weight="400" font-style="normal">
</g>
</g>

<g clip-path="url(#clipPath7)"><g fill="none" stroke="#666666" stroke-opacity="1" stroke-width="1" stroke-linecap="square" stroke-linejoin="bevel" transform="matrix(1,0,0,1,90,55)" font-family="Arial" font-size="12" font-weight="400" font-style="normal">
</g>
</g>

<g clip-path="url(#clipPath8)"><g fill="none" stroke="#666666" stroke-opacity="1" stroke-width="1" stroke-linecap="square" stroke-linejoin="bevel" transform="matrix(1,0,0,1,90,55)" font-family="Arial" font-size="12" font-weight="400" font-style="normal">
</g>
</g>

<g clip-path="url(#clipPath9)"><g fill="none" stroke="#666666" stroke-opacity="1" stroke-width="1" stroke-linecap="square" stroke-linejoin="bevel" transform="matrix(1,0,0,1,90,55)" font-family="Arial" font-size="12" font-weight="400" font-style="normal">
</g>
</g>

<g clip-path="url(#clipPath9)"><g fill="#ffffff" fill-opacity="1" stroke="none" transform="matrix(1,0,0,1,90,55)" font-family="Arial" font-size="12" font-weight="400" font-style="normal">
<rect x="0" y="0" width="698" height="494"/>
</g>
</g>

<g clip-path="url(#clipPath10)"><g fill="none" stroke="#666666" stroke-opacity="1" stroke-width="1" stroke-linecap="square" stroke-linejoin="bevel" transform="matrix(1,0,0,1,90,55)" font-family="Arial" font-size="12" font-weight="400" font-style="normal">
</g>
</g>

<g clip-path="url(#clipPath11)"><g fill="none" stroke="#666666" stroke-opacity="1" stroke-width="1" stroke-linecap="square" stroke-linejoin="bevel" transform="matrix(1,0,0,1,90,55)" font-family="Arial" font-size="12" font-weight="400" font-style="normal">
</g>
</g>

<g clip-path="url(#clipPath11)"><g fill="none" stroke="#f2f2f2" stroke-opacity="1" stroke-width="1" stroke-linecap="square" stroke-linejoin="bevel" transform="matrix(1,0,0,1,90,55)" font-family="Arial" font-size="12" font-weight="400" font-style="normal">
<polyline fill="none" vector-effect="none" points="0,432 697,432 "/>
<polyline fill="none" vector-effect="none" points="0,371 697,371 "/>
<polyline fill="none" vector-effect="none" points="0,309 697,309 "/>
<polyline fill="none" vector-effect="none" points="0,248 697,248 "/>
<polyline fill="none" vector-effect="none" points="0,187 697,187 "/>
<polyline fill="none" vector-effect="none" points="0,126 697,126 "/>
<polyline fill="none" vector-effect="none" points="0,65 697,65 "/>
<polyline fill="none" vector-effect="none" points="0,4 697,4 "/>
</g>
</g>

<g clip-path="url(#clipPath12)"><g fill="none" stroke="#f2f2f2" stroke-opacity="1" stroke-width="1" stroke-linecap="square" stroke-linejoin="bevel" transform="matrix(1,0,0,1,90,55)" font-family="Arial" font-size="12" font-weight="400" font-style="normal">
</g>
</g>

<g clip-path="url(#clipPath13)"><g fill="none" stroke="#f2f2f2" stroke-opacity="1" stroke-width="1" stroke-linecap="square" stroke-linejoin="bevel" transform="matrix(1,0,0,1,90,55)" font-family="Arial" font-size="12" font-weight="400" font-style="normal">
</g>
</g>

<g clip-path="url(#clipPath13)"><g fill="none" stroke="#cbcbcb" stroke-opacity="1" stroke-dasharray="1,2" stroke-dashoffset="0" stroke-width="1" stroke-linecap="square" stroke-linejoin="bevel" transform="matrix(1,0,0,1,90,55)" font-family="Arial" font-size="12" font-weight="400" font-style="normal">
<polyline fill="none" vector-effect="none" points="0,493 697,493 "/>
</g>
</g>

<g clip-path="url(#clipPath14)"><g fill="none" stroke="#cbcbcb" stroke-opacity="1" stroke-dasharray="1,2" stroke-dashoffset="0" stroke-width="1" stroke-linecap="square" stroke-linejoin="bevel" transform="matrix(1,0,0,1,90,55)" font-family="Arial" font-size="12" font-weight="400" font-style="normal">
</g>
</g>

<g clip-path="url(#clipPath15)"><g fill="none" stroke="#cbcbcb" stroke-opacity="1" stroke-dasharray="1,2" stroke-dashoffset="0" stroke-width="1" stroke-linecap="square" stroke-linejoin="bevel" transform="matrix(1,0,0,1,90,55)" font-family="Arial" font-size="12" font-weight="400" font-style="normal">
</g>
</g>

<g clip-path="url(#clipPath16)"><g fill="none" stroke="#cbcbcb" stroke-opacity="1" stroke-dasharray="1,2" stroke-dashoffset="0" stroke-width="1" stroke-linecap="square" stroke-linejoin="bevel" transform="matrix(1,0,0,1,90,55)" font-family="Arial" font-size="12" font-weight="400" font-style="normal">
</g>
</g>

<g clip-path="url(#clipPath17)"><g fill="none" stroke="#cbcbcb" stroke-opacity="1" stroke-dasharray="1,2" stroke-dashoffset="0" stroke-width="1" stroke-linecap="square" stroke-linejoin="bevel" transform="matrix(1,0,0,1,90,55)" font-family="Arial" font-size="12" font-weight="400" font-style="normal">
</g>
</g>

<g clip-path="url(#clipPath18)"><g fill="none" stroke="#cbcbcb" stroke-opacity="1" stroke-dasharray="1,2" stroke-dashoffset="0" stroke-width="1" stroke-linecap="square" stroke-linejoin="bevel" transform="matrix(1,0,0,1,90,55)" font-family="Arial" font-size="12" font-weight="400" font-style="normal">
</g>
</g>

<g clip-path="url(#clipPath19)"><g fill="none" stroke="#cbcbcb" stroke-opacity="1" stroke-dasharray="1,2" stroke-dashoffset="0" stroke-width="1" stroke-linecap="square" stroke-linejoin="bevel" transform="matrix(1,0,0,1,90,55)" font-family="Arial" font-size="12" font-weight="400" font-style="normal">
</g>
</g>

<g clip-path="url(#clipPath20)"><g fill="none" stroke="#cbcbcb" stroke-opacity="1" stroke-dasharray="1,2" stroke-dashoffset="0" stroke-width="1" stroke-linecap="square" stroke-linejoin="bevel" transform="matrix(1,0,0,1,90,55)" font-family="Arial" font-size="12" font-weight="400" font-style="normal">
</g>
</g>

<g clip-path="url(#clipPath21)"><g fill="none" stroke="#cbcbcb" stroke-opacity="1" stroke-dasharray="1,2" stroke-dashoffset="0" stroke-width="1" stroke-linecap="square" stroke-linejoin="bevel" transform="matrix(1,0,0,1,90,55)" font-family="Arial" font-size="12" font-weight="400" font-style="normal">
</g>
</g>

<g clip-path="url(#clipPath22)"><g fill="none" stroke="#cbcbcb" stroke-opacity="1" stroke-dasharray="1,2" stroke-dashoffset="0" stroke-width="1" stroke-linecap="square" stroke-linejoin="bevel" transform="matrix(1,0,0,1,90,55)" font-family="Arial" font-size="12" font-weight="400" font-style="normal">
</g>
</g>

<g clip-path="url(#clipPath23)"><g fill="none" stroke="#cbcbcb" stroke-opacity="1" stroke-dasharray="1,2" stroke-dashoffset="0" stroke-width="1" stroke-linecap="square" stroke-linejoin="bevel" transform="matrix(1,0,0,1,90,55)" font-family="Arial" font-size="12" font-weight="400" font-style="normal">
</g>
</g>

<g clip-path="url(#clipPath24)"><g fill="none" stroke="#cbcbcb" stroke-opacity="1" stroke-dasharray="1,2" stroke-dashoffset="0" stroke-width="1" stroke-linecap="square" stroke-linejoin="bevel" transform="matrix(1,0,0,1,90,55)" font-family="Arial" font-size="12" font-weight="400" font-style="normal">
</g>
</g>

<g clip-path="url(#clipPath24)"><g fill="#d03531" fill-opacity="1" stroke="none" transform="matrix(1,0,0,1,90,55)" font-family="Arial" font-size="12" font-weight="400" font-style="normal">
<rect x="575" y="41" width="105" height="452"/>
</g>
</g>

<g clip-path="url(#clipPath24)"><g fill="#b7b7b7" fill-opacity="1" stroke="none" transform="matrix(1,0,0,1,90,55)" font-family="Arial" font-size="12" font-weight="400" font-style="normal">
<rect x="435" y="462" width="105" height="31"/>
</g>
</g>

<g clip-path="url(#clipPath24)"><g fill="#4e79a7" fill-opacity="1" stroke="none" transform="matrix(1,0,0,1,90,55)" font-family="Arial" font-size="12" font-weight="400" font-style="normal">
<rect x="296" y="464" width="105" height="29"/>
</g>
</g>

<g clip-path="url(#clipPath24)"><g fill="#b07aa1" fill-opacity="1" stroke="none" transform="matrix(1,0,0,1,90,55)" font-family="Arial" font-size="12" font-weight="400" font-style="normal">
<rect x="157" y="471" width="105" height="22"/>
</g>
</g>

<g clip-path="url(#clipPath24)"><g fill="#000000" fill-opacity="1" stroke="none" transform="matrix(1,0,0,1,90,55)" font-family="Arial" font-size="12" font-weight="400" font-style="normal">
<rect x="17" y="487" width="105" height="6"/>
</g>
</g>

<g clip-path="url(#clipPath25)"><g fill="#000000" fill-opacity="1" stroke="none" transform="matrix(1,0,0,1,90,55)" font-family="Arial" font-size="12" font-weight="400" font-style="normal">
</g>
</g>

<g clip-path="url(#clipPath26)"><g fill="#000000" fill-opacity="1" stroke="none" transform="matrix(1,0,0,1,90,55)" font-family="Arial" font-size="12" font-weight="400" font-style="normal">
</g>
</g>

<g clip-path="url(#clipPath26)"><g fill="none" stroke="#000000" stroke-opacity="1" stroke-width="1" stroke-linecap="square" stroke-linejoin="bevel" transform="matrix(1,0,0,1,90,55)" font-family="Arial" font-size="12" font-weight="700" font-style="normal">
<text fill="#000000" fill-opacity="1" stroke="none" xml:space="preserve" x="611" y="35" font-family="Arial" font-size="12" font-weight="700" font-style="normal">7,395</text>
</g>
</g>

<g clip-path="url(#clipPath26)"><g fill="none" stroke="#000000" stroke-opacity="1" stroke-width="1" stroke-linecap="square" stroke-linejoin="bevel" transform="matrix(1,0,0,1,90,55)" font-family="Arial" font-size="12" font-weight="700" font-style="normal">
<text fill="#000000" fill-opacity="1" stroke="none" xml:space="preserve" x="58" y="481" font-family="Arial" font-size="12" font-weight="700" font-style="normal">103</text>
</g>
</g>

<g clip-path="url(#clipPath26)"><g fill="none" stroke="#000000" stroke-opacity="1" stroke-width="1" stroke-linecap="square" stroke-linejoin="bevel" transform="matrix(1,0,0,1,90,55)" font-family="Arial" font-size="12" font-weight="700" font-style="normal">
<text fill="#000000" fill-opacity="1" stroke="none" xml:space="preserve" x="198" y="465" font-family="Arial" font-size="12" font-weight="700" font-style="normal">363</text>
</g>
</g>

<g clip-path="url(#clipPath26)"><g fill="none" stroke="#000000" stroke-opacity="1" stroke-width="1" stroke-linecap="square" stroke-linejoin="bevel" transform="matrix(1,0,0,1,90,55)" font-family="Arial" font-size="12" font-weight="700" font-style="normal">
<text fill="#000000" fill-opacity="1" stroke="none" xml:space="preserve" x="337" y="458" font-family="Arial" font-size="12" font-weight="700" font-style="normal">476</text>
</g>
</g>

<g clip-path="url(#clipPath26)"><g fill="none" stroke="#000000" stroke-opacity="1" stroke-width="1" stroke-linecap="square" stroke-linejoin="bevel" transform="matrix(1,0,0,1,90,55)" font-family="Arial" font-size="12" font-weight="700" font-style="normal">
<text fill="#000000" fill-opacity="1" stroke="none" xml:space="preserve" x="476" y="456" font-family="Arial" font-size="12" font-weight="700" font-style="normal">503</text>
</g>
</g>

<g clip-path="url(#clipPath27)"><g fill="none" stroke="#000000" stroke-opacity="1" stroke-width="1" stroke-linecap="square" stroke-linejoin="bevel" transform="matrix(1,0,0,1,90,55)" font-family="Arial" font-size="12" font-weight="700" font-style="normal">
</g>
</g>

<g clip-path="url(#clipPath28)"><g fill="none" stroke="#000000" stroke-opacity="1" stroke-width="1" stroke-linecap="square" stroke-linejoin="bevel" transform="matrix(1,0,0,1,90,55)" font-family="Arial" font-size="12" font-weight="700" font-style="normal">
</g>
</g>

<g clip-path="url(#clipPath29)"><g fill="none" stroke="#000000" stroke-opacity="1" stroke-width="1" stroke-linecap="square" stroke-linejoin="bevel" transform="matrix(1,0,0,1,90,55)" font-family="Arial" font-size="12" font-weight="700" font-style="normal">
</g>
</g>

<g clip-path="url(#clipPath30)"><g fill="none" stroke="#000000" stroke-opacity="1" stroke-width="1" stroke-linecap="square" stroke-linejoin="bevel" transform="matrix(1,0,0,1,90,55)" font-family="Arial" font-size="12" font-weight="700" font-style="normal">
</g>
</g>

<g clip-path="url(#clipPath31)"><g fill="none" stroke="#000000" stroke-opacity="1" stroke-width="1" stroke-linecap="square" stroke-linejoin="bevel" transform="matrix(1,0,0,1,90,55)" font-family="Arial" font-size="12" font-weight="700" font-style="normal">
</g>
</g>

<g clip-path="url(#clipPath32)"><g fill="none" stroke="#000000" stroke-opacity="1" stroke-width="1" stroke-linecap="square" stroke-linejoin="bevel" transform="matrix(1,0,0,1,90,55)" font-family="Arial" font-size="12" font-weight="700" font-style="normal">
</g>
</g>

<g clip-path="url(#clipPath33)"><g fill="none" stroke="#000000" stroke-opacity="1" stroke-width="1" stroke-linecap="square" stroke-linejoin="bevel" transform="matrix(1,0,0,1,90,55)" font-family="Arial" font-size="12" font-weight="700" font-style="normal">
</g>
</g>

<g clip-path="url(#clipPath34)"><g fill="none" stroke="#000000" stroke-opacity="1" stroke-width="1" stroke-linecap="square" stroke-linejoin="bevel" transform="matrix(1,0,0,1,90,55)" font-family="Arial" font-size="12" font-weight="700" font-style="normal">
</g>
</g>

<g clip-path="url(#clipPath35)"><g fill="none" stroke="#000000" stroke-opacity="1" stroke-width="1" stroke-linecap="square" stroke-linejoin="bevel" transform="matrix(1,0,0,1,90,55)" font-family="Arial" font-size="12" font-weight="700" font-style="normal">
</g>
</g>

<g clip-path="url(#clipPath36)"><g fill="none" stroke="#000000" stroke-opacity="1" stroke-width="1" stroke-linecap="square" stroke-linejoin="bevel" transform="matrix(1,0,0,1,90,55)" font-family="Arial" font-size="12" font-weight="700" font-style="normal">
</g>
</g>

<g clip-path="url(#clipPath37)"><g fill="none" stroke="#000000" stroke-opacity="1" stroke-width="1" stroke-linecap="square" stroke-linejoin="bevel" transform="matrix(1,0,0,1,90,55)" font-family="Arial" font-size="12" font-weight="700" font-style="normal">
</g>
</g>

<g clip-path="url(#clipPath38)"><g fill="none" stroke="#000000" stroke-opacity="1" stroke-width="1" stroke-linecap="square" stroke-linejoin="bevel" transform="matrix(1,0,0,1,90,55)" font-family="Arial" font-size="12" font-weight="700" font-style="normal">
</g>
</g>

<g clip-path="url(#clipPath39)"><g fill="none" stroke="#000000" stroke-opacity="1" stroke-width="1" stroke-linecap="square" stroke-linejoin="bevel" transform="matrix(1,0,0,1,90,55)" font-family="Arial" font-size="12" font-weight="700" font-style="normal">
</g>
</g>

<g clip-path="url(#clipPath40)"><g fill="none" stroke="#000000" stroke-opacity="1" stroke-width="1" stroke-linecap="square" stroke-linejoin="bevel" transform="matrix(1,0,0,1,90,55)" font-family="Arial" font-size="12" font-weight="700" font-style="normal">
</g>
</g>

<g clip-path="url(#clipPath41)"><g fill="none" stroke="#000000" stroke-opacity="1" stroke-width="1" stroke-linecap="square" stroke-linejoin="bevel" transform="matrix(1,0,0,1,90,55)" font-family="Arial" font-size="12" font-weight="700" font-style="normal">
</g>
</g>

<g clip-path="url(#clipPath42)"><g fill="none" stroke="#000000" stroke-opacity="1" stroke-width="1" stroke-linecap="square" stroke-linejoin="bevel" transform="matrix(1,0,0,1,90,55)" font-family="Arial" font-size="12" font-weight="700" font-style="normal">
</g>
</g>

<g clip-path="url(#clipPath43)"><g fill="none" stroke="#000000" stroke-opacity="1" stroke-width="1" stroke-linecap="square" stroke-linejoin="bevel" transform="matrix(1,0,0,1,90,55)" font-family="Arial" font-size="12" font-weight="700" font-style="normal">
</g>
</g>

<g clip-path="url(#clipPath44)"><g fill="none" stroke="#000000" stroke-opacity="1" stroke-width="1" stroke-linecap="square" stroke-linejoin="bevel" transform="matrix(1,0,0,1,90,55)" font-family="Arial" font-size="12" font-weight="700" font-style="normal">
</g>
</g>

<g clip-path="url(#clipPath45)"><g fill="none" stroke="#000000" stroke-opacity="1" stroke-width="1" stroke-linecap="square" stroke-linejoin="bevel" transform="matrix(1,0,0,1,90,55)" font-family="Arial" font-size="12" font-weight="700" font-style="normal">
</g>
</g>

<g clip-path="url(#clipPath46)"><g fill="none" stroke="#000000" stroke-opacity="1" stroke-width="1" stroke-linecap="square" stroke-linejoin="bevel" transform="matrix(1,0,0,1,90,55)" font-family="Arial" font-size="12" font-weight="700" font-style="normal">
</g>
</g>

<g clip-path="url(#clipPath47)"><g fill="none" stroke="#000000" stroke-opacity="1" stroke-width="1" stroke-linecap="square" stroke-linejoin="bevel" transform="matrix(1,0,0,1,90,55)" font-family="Arial" font-size="12" font-weight="700" font-style="normal">
</g>
</g>

<g clip-path="url(#clipPath48)"><g fill="none" stroke="#000000" stroke-opacity="1" stroke-width="1" stroke-linecap="square" stroke-linejoin="bevel" transform="matrix(1,0,0,1,90,55)" font-family="Arial" font-size="12" font-weight="700" font-style="normal">
</g>
</g>

<g clip-path="url(#clipPath49)"><g fill="none" stroke="#000000" stroke-opacity="1" stroke-width="1" stroke-linecap="square" stroke-linejoin="bevel" transform="matrix(1,0,0,1,90,55)" font-family="Arial" font-size="12" font-weight="700" font-style="normal">
</g>
</g>

<g clip-path="url(#clipPath50)"><g fill="none" stroke="#000000" stroke-opacity="1" stroke-width="1" stroke-linecap="square" stroke-linejoin="bevel" transform="matrix(1,0,0,1,90,55)" font-family="Arial" font-size="12" font-weight="700" font-style="normal">
</g>
</g>

<g clip-path="url(#clipPath51)"><g fill="none" stroke="#000000" stroke-opacity="1" stroke-width="1" stroke-linecap="square" stroke-linejoin="bevel" transform="matrix(1,0,0,1,90,55)" font-family="Arial" font-size="12" font-weight="700" font-style="normal">
</g>
</g>

<g clip-path="url(#clipPath52)"><g fill="none" stroke="#000000" stroke-opacity="1" stroke-width="1" stroke-linecap="square" stroke-linejoin="bevel" transform="matrix(1,0,0,1,90,55)" font-family="Arial" font-size="12" font-weight="700" font-style="normal">
</g>
</g>

<g clip-path="url(#clipPath53)"><g fill="none" stroke="#000000" stroke-opacity="1" stroke-width="1" stroke-linecap="square" stroke-linejoin="bevel" transform="matrix(1,0,0,1,90,55)" font-family="Arial" font-size="12" font-weight="700" font-style="normal">
</g>
</g>

<g clip-path="url(#clipPath54)"><g fill="none" stroke="#000000" stroke-opacity="1" stroke-width="1" stroke-linecap="square" stroke-linejoin="bevel" transform="matrix(1,0,0,1,90,55)" font-family="Arial" font-size="12" font-weight="700" font-style="normal">
</g>
</g>

<g clip-path="url(#clipPath55)"><g fill="none" stroke="#000000" stroke-opacity="1" stroke-width="1" stroke-linecap="square" stroke-linejoin="bevel" transform="matrix(1,0,0,1,90,55)" font-family="Arial" font-size="12" font-weight="700" font-style="normal">
</g>
</g>

<g clip-path="url(#clipPath56)"><g fill="none" stroke="#000000" stroke-opacity="1" stroke-width="1" stroke-linecap="square" stroke-linejoin="bevel" transform="matrix(1,0,0,1,90,55)" font-family="Arial" font-size="12" font-weight="700" font-style="normal">
</g>
</g>

<g clip-path="url(#clipPath57)"><g fill="none" stroke="#000000" stroke-opacity="1" stroke-width="1" stroke-linecap="square" stroke-linejoin="bevel" transform="matrix(1,0,0,1,90,55)" font-family="Arial" font-size="12" font-weight="700" font-style="normal">
</g>
</g>

<g clip-path="url(#clipPath58)"><g fill="none" stroke="#000000" stroke-opacity="1" stroke-width="1" stroke-linecap="square" stroke-linejoin="bevel" transform="matrix(1,0,0,1,90,55)" font-family="Arial" font-size="12" font-weight="700" font-style="normal">
</g>
</g>

<g clip-path="url(#clipPath59)"><g fill="none" stroke="#000000" stroke-opacity="1" stroke-width="1" stroke-linecap="square" stroke-linejoin="bevel" transform="matrix(1,0,0,1,90,55)" font-family="Arial" font-size="12" font-weight="700" font-style="normal">
</g>
</g>

<g clip-path="url(#clipPath60)"><g fill="none" stroke="#000000" stroke-opacity="1" stroke-width="1" stroke-linecap="square" stroke-linejoin="bevel" transform="matrix(1,0,0,1,90,55)" font-family="Arial" font-size="12" font-weight="700" font-style="normal">
</g>
</g>

<g clip-path="url(#clipPath61)"><g fill="none" stroke="#000000" stroke-opacity="1" stroke-width="1" stroke-linecap="square" stroke-linejoin="bevel" transform="matrix(1,0,0,1,90,55)" font-family="Arial" font-size="12" font-weight="700" font-style="normal">
</g>
</g>

<g clip-path="url(#clipPath62)"><g fill="none" stroke="#000000" stroke-opacity="1" stroke-width="1" stroke-linecap="square" stroke-linejoin="bevel" transform="matrix(1,0,0,1,90,55)" font-family="Arial" font-size="12" font-weight="700" font-style="normal">
</g>
</g>

<g clip-path="url(#clipPath63)"><g fill="none" stroke="#000000" stroke-opacity="1" stroke-width="1" stroke-linecap="square" stroke-linejoin="bevel" transform="matrix(1,0,0,1,90,55)" font-family="Arial" font-size="12" font-weight="700" font-style="normal">
</g>
</g>

<g clip-path="url(#clipPath64)"><g fill="none" stroke="#000000" stroke-opacity="1" stroke-width="1" stroke-linecap="square" stroke-linejoin="bevel" transform="matrix(1,0,0,1,90,55)" font-family="Arial" font-size="12" font-weight="700" font-style="normal">
</g>
</g>

<g clip-path="url(#clipPath65)"><g fill="none" stroke="#000000" stroke-opacity="1" stroke-width="1" stroke-linecap="square" stroke-linejoin="bevel" transform="matrix(1,0,0,1,90,55)" font-family="Arial" font-size="12" font-weight="700" font-style="normal">
</g>
</g>

<g clip-path="url(#clipPath65)"><g fill="none" stroke="#f5f5f5" stroke-opacity="1" stroke-width="1" stroke-linecap="square" stroke-linejoin="bevel" transform="matrix(1,0,0,1,90,55)" font-family="Arial" font-size="12" font-weight="700" font-style="normal">
<polyline fill="none" vector-effect="none" points="0,493 697,493 "/>
<polyline fill="none" vector-effect="none" points="0,0 0,493 "/>
</g>
</g>

<g clip-path="url(#clipPath66)"><g fill="none" stroke="#f5f5f5" stroke-opacity="1" stroke-width="1" stroke-linecap="square" stroke-linejoin="bevel" transform="matrix(1,0,0,1,90,55)" font-family="Arial" font-size="12" font-weight="700" font-style="normal">
</g>
</g>

<g fill="none" stroke="#f5f5f5" stroke-opacity="1" stroke-width="1" stroke-linecap="square" stroke-linejoin="bevel" transform="matrix(1,0,0,1,90,55)" font-family="Arial" font-size="12" font-weight="700" font-style="normal">
</g>

<g fill="none" stroke="#000000" stroke-opacity="1" stroke-width="1" stroke-linecap="square" stroke-linejoin="bevel" transform="matrix(1,0,0,1,12,12)" font-family="Arial" font-size="20" font-weight="700" font-style="normal">
<text fill="#000000" fill-opacity="1" stroke="none" xml:space="preserve" x="4" y="27" font-family="Arial" font-size="20" font-weight="700" font-style="normal">Total Enrollment 2022</text>
</g>
</g>
</svg>